<svg xmlns="http://www.w3.org/2000/svg" width="880" height="288" viewBox="0 0 880 288" fill="none" role="img" aria-label="Language stack radar across public repositories">
  <defs>
    <radialGradient id="poly" cx="0.5" cy="0.5" r="0.6">
      <stop offset="0" stop-color="#f3e600" stop-opacity="0.28"/><stop offset="1" stop-color="#55ead4" stop-opacity="0.14"/>
    </radialGradient>
    <radialGradient id="cbg" cx="0.28" cy="0.35" r="1">
      <stop offset="0" stop-color="#0c0c05"/><stop offset="1" stop-color="#050505"/>
    </radialGradient>
    <linearGradient id="sweepGrad" x1="0" y1="1" x2="0.5" y2="0">
      <stop offset="0" stop-color="#55ead4" stop-opacity="0"/><stop offset="1" stop-color="#55ead4" stop-opacity="0.28"/>
    </linearGradient>
    <filter id="pglow" x="-40%" y="-40%" width="180%" height="180%"><feGaussianBlur stdDeviation="2" result="b"/><feMerge><feMergeNode in="b"/><feMergeNode in="SourceGraphic"/></feMerge></filter>
    <clipPath id="cc"><rect x="0" y="0" width="880" height="288" rx="4"/></clipPath>
    <clipPath id="radar"><circle cx="232" cy="150" r="100"/></clipPath>
    <style>
      .mono { font-family:"JetBrains Mono","Cascadia Code",ui-monospace,Menlo,Consolas,monospace; }
      .rj { font-family:"Rajdhani","Arial Narrow","Roboto Condensed",system-ui,sans-serif; }
      text { dominant-baseline:middle; }
      .bar { transform-box:fill-box; transform-origin:left center; transform:scaleX(0); animation:grow .9s cubic-bezier(.2,.7,.2,1) forwards; }
      @keyframes grow { to { transform:scaleX(1); } }
      .b0{animation-delay:0.60s}.b1{animation-delay:0.70s}.b2{animation-delay:0.80s}.b3{animation-delay:0.90s}.b4{animation-delay:1.00s}.b5{animation-delay:1.10s}
      .poly { opacity:0; transform-box:fill-box; transform-origin:232px 150px; transform:scale(.6); animation:pin .8s .3s cubic-bezier(.2,.8,.2,1) forwards; }
      @keyframes pin { to { opacity:1; transform:scale(1); } }
      .pulse { animation:pulse 3.2s ease-in-out infinite; } @keyframes pulse { 0%,100%{opacity:1} 50%{opacity:.55} }
      .beat { animation:beat 1.5s ease-in-out infinite; } @keyframes beat { 0%,100%{opacity:1} 50%{opacity:.3} }
      .scanl { animation:scanl 4.4s linear infinite; } @keyframes scanl { 0%{transform:translateY(-24px)} 100%{transform:translateY(288px)} }
      @media (prefers-reduced-motion: reduce) { .bar{transform:scaleX(1);animation:none} .poly{opacity:1;transform:none;animation:none} .sweep,.scanl,.beat,.pulse{animation:none} .sweep{display:none} }
    </style>
  </defs>
  <rect x="0" y="0" width="880" height="288" rx="4" fill="url(#cbg)"/>
  <g clip-path="url(#cc)">
    <g stroke="#55ead4" stroke-width="1.2" fill="none" stroke-opacity="0.9">
      <path d="M16,32 L16,16 L34,16"/><path d="M846,16 L864,16 L864,32"/>
      <path d="M16,272 L16,256 M16,272 L34,272"/><path d="M864,256 L864,272 L846,272"/>
    </g>
    <text class="rj" x="40" y="36" font-size="15" fill="#f3e600" letter-spacing="2.5" font-weight="700">&#9656; STACK.MATRIX</text>
    <text class="rj" x="864" y="36" font-size="11" fill="#55ead4" text-anchor="end" letter-spacing="2">SCAN <tspan class="beat" fill="#f3e600">&#9679;</tspan></text>
    <line x1="40" y1="48" x2="840" y2="48" stroke="#55ead4" stroke-opacity="0.2"/>

    <!-- radar -->
    <polygon points="232.0,125.0 253.7,137.5 253.7,162.5 232.0,175.0 210.3,162.5 210.3,137.5" fill="none" stroke="#55ead4" stroke-opacity="0.09" stroke-width="1"/><polygon points="232.0,100.0 275.3,125.0 275.3,175.0 232.0,200.0 188.7,175.0 188.7,125.0" fill="none" stroke="#55ead4" stroke-opacity="0.09" stroke-width="1"/><polygon points="232.0,75.0 297.0,112.5 297.0,187.5 232.0,225.0 167.0,187.5 167.0,112.5" fill="none" stroke="#55ead4" stroke-opacity="0.09" stroke-width="1"/><polygon points="232.0,50.0 318.6,100.0 318.6,200.0 232.0,250.0 145.4,200.0 145.4,100.0" fill="none" stroke="#55ead4" stroke-opacity="0.25" stroke-width="1"/>
    <line x1="232.0" y1="150.0" x2="232.0" y2="50.0" stroke="#55ead4" stroke-opacity="0.15"/><line x1="232.0" y1="150.0" x2="318.6" y2="100.0" stroke="#55ead4" stroke-opacity="0.15"/><line x1="232.0" y1="150.0" x2="318.6" y2="200.0" stroke="#55ead4" stroke-opacity="0.15"/><line x1="232.0" y1="150.0" x2="232.0" y2="250.0" stroke="#55ead4" stroke-opacity="0.15"/><line x1="232.0" y1="150.0" x2="145.4" y2="200.0" stroke="#55ead4" stroke-opacity="0.15"/><line x1="232.0" y1="150.0" x2="145.4" y2="100.0" stroke="#55ead4" stroke-opacity="0.15"/>
    <g clip-path="url(#radar)"><g class="sweep" transform="translate(232,150)"><path d="M0,0 L0,-100.0 A100,100 0 0 1 69.5,-71.9 Z" fill="url(#sweepGrad)"><animateTransform attributeName="transform" type="rotate" from="0" to="360" dur="5s" repeatCount="indefinite"/></path></g></g>
    <polygon class="poly" points="232.0,50.0 292.8,114.9 285.5,180.9 232.0,173.9 212.9,161.0 215.9,140.7" fill="url(#poly)" stroke="#f3e600" stroke-width="1.6" filter="url(#pglow)"/>
    <g class="poly"><circle cx="232.0" cy="50.0" r="2.8" fill="#f3e600"/><circle cx="292.8" cy="114.9" r="2.8" fill="#f3e600"/><circle cx="285.5" cy="180.9" r="2.8" fill="#f3e600"/><circle cx="232.0" cy="173.9" r="2.8" fill="#f3e600"/><circle cx="212.9" cy="161.0" r="2.8" fill="#f3e600"/><circle cx="215.9" cy="140.7" r="2.8" fill="#f3e600"/></g>
    <circle class="pulse" cx="232" cy="150" r="2.5" fill="#55ead4"/>
    <text x="232" y="35" text-anchor="middle" class="rj" font-size="11" fill="#dcdcdc" letter-spacing="0.5">TYPESCRIPT</text><text x="332" y="92" text-anchor="start" class="rj" font-size="11" fill="#dcdcdc" letter-spacing="0.5">JAVA</text><text x="332" y="208" text-anchor="start" class="rj" font-size="11" fill="#dcdcdc" letter-spacing="0.5">PHP</text><text x="232" y="265" text-anchor="middle" class="rj" font-size="11" fill="#dcdcdc" letter-spacing="0.5">ASTRO</text><text x="132" y="208" text-anchor="end" class="rj" font-size="11" fill="#dcdcdc" letter-spacing="0.5">JAVASCRIPT</text><text x="132" y="92" text-anchor="end" class="rj" font-size="11" fill="#dcdcdc" letter-spacing="0.5">PLPGSQL</text>

    <!-- legend -->
    <text class="rj" x="452" y="44" font-size="10.5" fill="#55ead4" letter-spacing="2">LANG_ALLOC ///</text>
    <rect x="452" y="61" width="9" height="9" fill="#3178c6"/><text x="470" y="66" class="mono" font-size="12" fill="#d8d8d8">TypeScript</text><rect x="620" y="62" width="150" height="7" fill="#111108" stroke="#55ead4" stroke-opacity="0.2"/><rect class="bar b0" x="620" y="62" width="150.0" height="7" fill="#3178c6"/><text x="792" y="66" class="mono" font-size="11.5" fill="#f3e600" font-weight="700" text-anchor="end">48.0%</text><rect x="452" y="89" width="9" height="9" fill="#e76f00"/><text x="470" y="94" class="mono" font-size="12" fill="#d8d8d8">Java</text><rect x="620" y="90" width="150" height="7" fill="#111108" stroke="#55ead4" stroke-opacity="0.2"/><rect class="bar b1" x="620" y="90" width="74.0" height="7" fill="#e76f00"/><text x="792" y="94" class="mono" font-size="11.5" fill="#f3e600" font-weight="700" text-anchor="end">23.7%</text><rect x="452" y="117" width="9" height="9" fill="#8892be"/><text x="470" y="122" class="mono" font-size="12" fill="#d8d8d8">PHP</text><rect x="620" y="118" width="150" height="7" fill="#111108" stroke="#55ead4" stroke-opacity="0.2"/><rect class="bar b2" x="620" y="118" width="57.3" height="7" fill="#8892be"/><text x="792" y="122" class="mono" font-size="11.5" fill="#f3e600" font-weight="700" text-anchor="end">18.3%</text><rect x="452" y="145" width="9" height="9" fill="#ff5d01"/><text x="470" y="150" class="mono" font-size="12" fill="#d8d8d8">Astro</text><rect x="620" y="146" width="150" height="7" fill="#111108" stroke="#55ead4" stroke-opacity="0.2"/><rect class="bar b3" x="620" y="146" width="8.6" height="7" fill="#ff5d01"/><text x="792" y="150" class="mono" font-size="11.5" fill="#f3e600" font-weight="700" text-anchor="end"> 2.7%</text><rect x="452" y="173" width="9" height="9" fill="#f1e05a"/><text x="470" y="178" class="mono" font-size="12" fill="#d8d8d8">JavaScript</text><rect x="620" y="174" width="150" height="7" fill="#111108" stroke="#55ead4" stroke-opacity="0.2"/><rect class="bar b4" x="620" y="174" width="7.3" height="7" fill="#f1e05a"/><text x="792" y="178" class="mono" font-size="11.5" fill="#f3e600" font-weight="700" text-anchor="end"> 2.3%</text><rect x="452" y="201" width="9" height="9" fill="#4a90c2"/><text x="470" y="206" class="mono" font-size="12" fill="#d8d8d8">PLpgSQL</text><rect x="620" y="202" width="150" height="7" fill="#111108" stroke="#55ead4" stroke-opacity="0.2"/><rect class="bar b5" x="620" y="202" width="5.2" height="7" fill="#4a90c2"/><text x="792" y="206" class="mono" font-size="11.5" fill="#f3e600" font-weight="700" text-anchor="end"> 1.7%</text>
    <text class="mono" x="452" y="268" font-size="10.5" fill="#6a6a6a" letter-spacing="1">REPOS 27  //  DATA 6.4MB  //  LANGS 13  //  <tspan fill="#f3e600">UPLINK [OK]</tspan></text>

    <g stroke="#000000" stroke-opacity="0.16" stroke-width="1"><line x1="0" y1="5" x2="880" y2="5"/><line x1="0" y1="11" x2="880" y2="11"/><line x1="0" y1="17" x2="880" y2="17"/><line x1="0" y1="23" x2="880" y2="23"/><line x1="0" y1="29" x2="880" y2="29"/><line x1="0" y1="35" x2="880" y2="35"/><line x1="0" y1="41" x2="880" y2="41"/><line x1="0" y1="47" x2="880" y2="47"/><line x1="0" y1="53" x2="880" y2="53"/><line x1="0" y1="59" x2="880" y2="59"/><line x1="0" y1="65" x2="880" y2="65"/><line x1="0" y1="71" x2="880" y2="71"/><line x1="0" y1="77" x2="880" y2="77"/><line x1="0" y1="83" x2="880" y2="83"/><line x1="0" y1="89" x2="880" y2="89"/><line x1="0" y1="95" x2="880" y2="95"/><line x1="0" y1="101" x2="880" y2="101"/><line x1="0" y1="107" x2="880" y2="107"/><line x1="0" y1="113" x2="880" y2="113"/><line x1="0" y1="119" x2="880" y2="119"/><line x1="0" y1="125" x2="880" y2="125"/><line x1="0" y1="131" x2="880" y2="131"/><line x1="0" y1="137" x2="880" y2="137"/><line x1="0" y1="143" x2="880" y2="143"/><line x1="0" y1="149" x2="880" y2="149"/><line x1="0" y1="155" x2="880" y2="155"/><line x1="0" y1="161" x2="880" y2="161"/><line x1="0" y1="167" x2="880" y2="167"/><line x1="0" y1="173" x2="880" y2="173"/><line x1="0" y1="179" x2="880" y2="179"/><line x1="0" y1="185" x2="880" y2="185"/><line x1="0" y1="191" x2="880" y2="191"/><line x1="0" y1="197" x2="880" y2="197"/><line x1="0" y1="203" x2="880" y2="203"/><line x1="0" y1="209" x2="880" y2="209"/><line x1="0" y1="215" x2="880" y2="215"/><line x1="0" y1="221" x2="880" y2="221"/><line x1="0" y1="227" x2="880" y2="227"/><line x1="0" y1="233" x2="880" y2="233"/><line x1="0" y1="239" x2="880" y2="239"/><line x1="0" y1="245" x2="880" y2="245"/><line x1="0" y1="251" x2="880" y2="251"/><line x1="0" y1="257" x2="880" y2="257"/><line x1="0" y1="263" x2="880" y2="263"/><line x1="0" y1="269" x2="880" y2="269"/><line x1="0" y1="275" x2="880" y2="275"/><line x1="0" y1="281" x2="880" y2="281"/><line x1="0" y1="287" x2="880" y2="287"/></g>
    <rect class="scanl" x="0" y="0" width="880" height="16" fill="#f3e600" opacity="0.04"/>
    <rect x="0.5" y="0.5" width="879" height="287" rx="4" fill="none" stroke="#f3e600" stroke-opacity="0.2"/>
  </g>
</svg>
